<svg id="logosandtypes_com" xmlns="http://www.w3.org/2000/svg" viewBox="0 0 150 150"><path fill="none" d="M0 0h150v150H0z"/><path data-name="uninter shape2" d="M111.4 60.91a50 50 0 0 1 9.83 1.36c-.18-2.1-.6-4.35-.6-4.35-3-1.6-9.62-2.37-9.62-2.37a70 70 0 0 0-2.64-14.1c6.64 2 8.53 4.74 8.53 4.74a16.82 16.82 0 0 0-3.37-4.89 25 25 0 0 0-6.46-3.7 18.63 18.63 0 0 0-4-6.78 21.68 21.68 0 0 0-4.57-2.93c3.08 2.34 4.83 8.56 4.83 8.56a79.29 79.29 0 0 0-14.13-2.64c-1-7.7-2.31-9.56-2.31-9.56a23.71 23.71 0 0 0-4.44-.6c1.48 4.68 2.07 19.9 2.07 19.9.77 19.34.45 35 .45 35-13.51.15-26.86-.06-26.86-.06-.06-7.11 0-19 0-19 0-3.5.41-15.49.41-15.49.68-16.32 2.11-20.29 2.11-20.29a23.59 23.59 0 0 0-4.42.66c-1.74 3.55-2.34 9.53-2.34 9.53-9.44 1-14.09 2.67-14.09 2.67C42 29.58 44.57 28 44.57 28a18.93 18.93 0 0 0-4.2 2.7c-2.55 2.14-4.37 7-4.37 7-6.23 2.37-7.86 5.3-7.86 5.3a28.22 28.22 0 0 0-1.9 3.28c2-2.84 8.44-4.85 8.44-4.85a87.58 87.58 0 0 0-2.6 14.09c-7.23 1-9.54 2.37-9.54 2.37a38.76 38.76 0 0 0-.54 4.45c2.57-.86 9.71-1.45 9.71-1.45a138 138 0 0 0 0 16.52A50.09 50.09 0 0 1 21.92 76a30.73 30.73 0 0 0 .59 4.38c2.78 1.54 9.54 2.34 9.54 2.34 1.12 9.74 2.63 14.13 2.63 14.13-7.06-2.33-8.47-4.85-8.47-4.85a20 20 0 0 0 1.87 3.23c2.25 3.41 7.91 5.33 7.91 5.33a19.43 19.43 0 0 0 3.52 6.28 15.23 15.23 0 0 0 5 3.52c-3-2.31-4.79-8.55-4.79-8.55a81.83 81.83 0 0 0 14.12 2.66c.86 7.11 2.34 9.6 2.34 9.6a43.63 43.63 0 0 0 4.41.59 58.3 58.3 0 0 1-1.42-9.8c9.18.59 24.67 0 24.67 0-.5 7.22-1.39 9.77-1.39 9.77a34.35 34.35 0 0 0 4.41-.59c1.69-3.62 2.34-9.63 2.34-9.63a69.54 69.54 0 0 0 14.1-2.6c-1.93 6.6-4.74 8.55-4.74 8.55 1.13-.53 2.78-1.51 2.78-1.51 4-2.6 5.78-8.29 5.78-8.29 5.74-2.16 7.49-4.8 7.49-4.8A16.6 16.6 0 0 0 117 92c-2.28 3-8.56 4.83-8.56 4.83A76 76 0 0 0 111 82.68c7.28-.89 9.62-2.34 9.62-2.34a28.62 28.62 0 0 0 .59-4.42c-2.63 1-9.8 1.45-9.8 1.45a116.77 116.77 0 0 0 0-16.52zM36 60.55s8.38-.5 16-.65c0 0-.18 7 0 18.45 0 0-6.08-.06-16.06-.65 0 0-.47-7.82 0-17.15H36zm2.65 37.38a98.68 98.68 0 0 1-2.22-14.69s4.23.59 15.81 1.09c0 0 .39 10.4 1.07 15.85a89.7 89.7 0 0 1-14.66-2.25zM52.23 54s-9.71.35-15.81 1.15a96.61 96.61 0 0 1 2.23-14.74 106.88 106.88 0 0 1 14.66-2.28s-.77 7-1.1 15.85zm31.93 46.7s-15.64.41-25.32 0c0 0-.51-8.62-.6-16.12 0 0 14.16.27 26.57 0 0 0-.09 7.2-.65 16.12zm20.23-60.32s1.37 4.23 2.28 14.72c0 0-6.18-.77-15.87-1.07 0 0-.35-9.45-1.09-15.9a105.36 105.36 0 0 1 14.68 2.25zm.06 57.59a93.74 93.74 0 0 1-14.71 2.28s.88-8.11 1.06-15.87c0 0 8.89-.24 15.9-1.1a109.1 109.1 0 0 1-2.25 14.69zm2.64-20.14s-6.37.33-16.11.6c0 0 .3-8.89 0-18.45 0 0 11.61.26 16.11.65 0 0 .41 6.9 0 17.17z" fill="#fbb317" fill-rule="evenodd"/><path data-name="uninter shape1" d="M125.49 58.69c48 10.74-14.63 54.54-68 60.05l-.11-.24a6.22 6.22 0 0 0-8.38-2.76h-.07a6.13 6.13 0 0 0-3.13 3.52 66.57 66.57 0 0 1-21.8-3.51c-12.85-4.8-15.73-14.69 1.72-31.1L20.4 88C1.5 105.77 4 116.28 17.05 121.11c8 3 18.11 3.75 29.12 2.89v.1a6.11 6.11 0 0 0 8.45 2.9 6.21 6.21 0 0 0 3.35-4.5c58.51-9.79 130.69-56.5 67.52-63.81z" fill="#003167"/></svg>